<?xml version="1.0" encoding="utf-8"?>
<!-- Generator: Adobe Illustrator 27.1.0, SVG Export Plug-In . SVG Version: 6.00 Build 0)  -->
<svg version="1.1" id="Capa_1" xmlns="http://www.w3.org/2000/svg" xmlns:xlink="http://www.w3.org/1999/xlink" x="0px" y="0px"
	 viewBox="0 0 467.6 202.5" style="enable-background:new 0 0 467.6 202.5;" xml:space="preserve">
<style type="text/css">
	.st0{fill:#E72264;}
	.st1{fill:#00805F;}
	.st2{fill:#1EB8D1;}
	.st3{fill:#CCD73E;}
</style>
<g>
	<path class="st0" d="M130,140.6c0-2.9-0.5-3.2-1.2-3.7c-2.7-1.7-4.2-4.3-4.2-7.5c0-4.7,4.7-12.4,12.8-15.5
		c-7.8-2.6-12.9-9.5-12.9-18.7v-40c0-2.4,1-4.5,2.8-5.9c-3.1-3.1-4.9-7.1-4.9-11.4c0-0.4,0-0.8,0.1-1.2c-11.2-5.9-24.6-9.1-39.4-9.1
		c-43.3,0-63.3,14.9-63.3,20.9c0,4.4,9.1,4.2,9.1,26v45.1c0,54,43.5,55,56.2,55c13.9,0,30.8-4.1,44.9-14c0-0.4,0-0.9,0-1.3V140.6z
		 M87.1,145.6c-7.9,0-15.1-5.2-15.1-24.2c0-12.5,0.2-65.3,0.2-65.3c2-0.2,3.8-0.2,5.6-0.2c30.4,0,36.5,27.8,36.5,46.7
		C114.3,127.1,104.6,145.6,87.1,145.6z"/>
	<g>
		<path class="st0" d="M189.1,153.7c0,5.6,1.1,8,3.9,9.9c0.7,0.5,0.9,0.7,0.9,1.5c0,1.9-4.1,9.7-13,9.7c-6.5,0-10.4-3.8-11.7-9.2
			c-0.2-0.7-0.3-1.4-0.4-2.2l-0.3-0.1c-4,8.9-11.4,11.3-17.1,11.3c-7.9,0-14.3-4.8-14.3-15.3v-18.7c0-5.5-1.8-7.8-4.4-9.6
			c-0.5-0.3-0.9-0.6-0.9-1.6c0-2,4.2-9.8,12.9-9.8c7.4,0,13.3,4.4,13.3,12.9v22c0,4.1,1.7,6.1,3.7,6.1c3,0,6.7-4,6.7-11.6
			c0-26.8,0-26.9,0-26.9c0-0.4,0.4-0.6,0.4-0.6c3-0.6,6.8-1,10.3-1c3.5,0,6.6,0.3,9.9,0.9c0,0,0.3,0.2,0.3,0.6
			C189.1,122.3,189.1,147.5,189.1,153.7z"/>
		<path class="st0" d="M226.4,165.6c-2.8-1.5-4.3-3.5-4.3-8.3v-46.9c0-0.3-0.4-0.4-0.4-0.4c-3.1-0.6-6.4-0.8-10-0.8
			c-3.2,0-7,0.3-9.9,0.8c-0.3,0.1-0.4,0.3-0.4,0.4v53.9c0,2.2,0.6,4.1,1.6,5.6c2.2,3.2,6.3,4.8,11.3,4.8c8.8,0,13-6.4,13-7.9
			C227.3,166.2,227.1,166,226.4,165.6z"/>
		<path class="st0" d="M273.9,146.6c-4.2,0-8.1-2.5-8.1-4.5c0-1.4,0.5-3.7,0.5-5.8c0-4.1-1.2-6.2-4.1-6.2c-4.4,0-7.8,7-7.8,14.2
			c0,7.8,4,16,15.6,16c7.4,0,12.1-3.8,14.4-3.8c0.8,0,1.2,0.4,1.2,1.4c0,4.6-8.6,16.7-23.6,16.7c-18.7,0-28.2-12.3-28.2-27.4
			c0-14.7,10.9-27.4,29.3-27.4c12.6,0,21.8,6.7,21.8,15.9C284.8,140.4,281.6,146.6,273.9,146.6z"/>
		<path class="st0" d="M344.1,157.7c0,4.8-7.5,16.9-23.3,16.9c-17.3,0-29.1-10.6-29.1-27.3c0-16.2,11.2-27.5,29.3-27.5
			c16.7,0,24.1,9.5,24.1,17c0,12.6-12.9,16.4-22.1,16.4c-5.2,0-8.8-0.6-10.4-1.2c0.8,5.9,7.3,9.1,13.5,9.1c10.5,0,15.1-4.7,17-4.7
			C344,156.2,344.1,157.2,344.1,157.7z M312,143.1c0,0,1.1,0,2.4,0.1c7.4,0,11-4.1,11-7.6c0-2.8-1.8-4.9-5.6-4.9
			C314.7,130.7,311.9,136.6,312,143.1z"/>
	</g>
	<path class="st1" d="M164.5,98.5c0,1.4-0.4,3-1.2,4.7c-2.8-2-4.3-4.4-4.3-6.8c0-1.8,0.6-3.5,1.8-5
		C162.7,92.7,164.5,94.7,164.5,98.5z"/>
	<path class="st2" d="M129.5,38c0-5.7,5.8-10.3,12.9-10.3s13,4.6,13,10.3c0,5.8-5.9,10.3-13,10.3S129.5,43.7,129.5,38z M131.6,95.4
		V55.3c0-0.2,0.1-0.4,0.4-0.5c2.9-0.6,6.7-1,9.9-1c3.6,0,7,0.3,10.1,1c0,0,0.3,0.1,0.3,0.5v31.5c0,5.8,1.5,8.2,4.3,10.1
		c0.7,0.5,0.9,0.7,0.9,1.5c0,1.9-4.2,9.7-13,9.7C137.1,108.2,131.6,103.7,131.6,95.4z"/>
	<path class="st2" d="M180.7,67.6c0-2.4,2-4.6,4.7-4.6c4.4,0,5.1,3.3,5.1,5.5c0,0.9-0.1,1.6-0.1,1.8c0,1.4,5,3.3,9,3.3
		c6.5,0,10.2-3.9,10.2-8.6c0-5.8-7.9-11.8-24.8-11.8c-14,0-24.5,7.5-24.5,16.7c0,18.7,30.2,15.4,30.2,23.9c0,2.4-1.5,4.6-5.8,4.6
		c-5.4,0-6.1-3.3-6.1-5.5c0-0.9,0.1-1.6,0.1-1.9c0-1.3-5.2-3.3-9.1-3.3c-3.9,0-7,1.4-8.7,3.6c-1.2,1.4-1.8,3.1-1.8,5
		c0,2.4,1.4,4.8,4.3,6.8c4.1,2.9,11.1,5,21.3,5c16.9,0,26.6-6.8,26.6-16.3C211.3,74.8,180.7,77.2,180.7,67.6z"/>
	<path class="st2" d="M252.1,94.9c-0.9,0-2.6,0.1-3.6,0.1c-5.5,0-8.8-2.3-8.8-9.8V63.1H251c0,0,0.4,0,0.4-0.5v-7.3
		c0-0.5-0.4-0.5-0.4-0.5h-11.2V42.1c0-0.5-0.4-0.6-0.4-0.6c-3.3-0.7-7.1-1-10.5-1c-3.3,0-6.6,0.3-9.8,1c0,0-0.4,0.1-0.4,0.5v12.8
		h-4.7c0,0-0.4,0-0.4,0.5v7.4c0,0.4,0.4,0.4,0.4,0.4h4.8v28.7c0,11.1,7.5,16.2,16.8,16.2c11.5,0,17.8-7.7,17.8-11.7
		C253.4,95.6,253.1,94.9,252.1,94.9z"/>
	<path class="st2" d="M288.1,74.1c0-1.9-0.7-3.8-2.8-3.8c-3.9,0-5.4,5.3-5.4,12.9v22.5c0,0.5-0.5,0.6-0.5,0.6c-3,0.7-6.4,1-9.9,1
		c-3.6,0-7.1-0.4-10.3-1c0,0-0.4-0.1-0.4-0.5c0.1-0.4,0.4-24.8,0.4-31.6c0-5.7-1.1-8.1-3.9-10c-0.7-0.5-0.9-0.7-0.9-1.5
		c0-1.9,4.2-9.6,13-9.6c6.7,0,10.9,4.3,11.7,11.9c0.1,0.8,0.1,1.8,0.1,2.7h0.5C281.8,58.2,288,53,295,53c6.7,0,12,4.8,12,12.6
		c0,9-8,15.9-15.3,15.9c-1.6,0-4.2,0-4.2-1.9C287.5,79.1,288.1,75.9,288.1,74.1z"/>
	<path class="st2" d="M308.9,38c0-5.7,5.8-10.3,12.9-10.3c7.1,0,13,4.6,13,10.3c0,5.8-5.9,10.3-13,10.3
		C314.7,48.3,308.9,43.7,308.9,38z M311,95.4V55.3c0-0.2,0.1-0.4,0.4-0.5c2.9-0.6,6.7-1,9.9-1c3.6,0,7,0.3,10.1,1
		c0,0,0.3,0.1,0.3,0.5v31.5c0,5.8,1.5,8.2,4.3,10.1c0.7,0.5,0.9,0.7,0.9,1.5c0,1.9-4.2,9.7-13,9.7C316.6,108.2,311,103.7,311,95.4z"
		/>
	<path class="st2" d="M377,94.9c1,0,1.3,0.7,1.3,1.4c0,4-6.3,11.7-17.8,11.7c-9.3,0-16.8-5-16.8-16.2V63.1h-4.8c0,0-0.4,0-0.4-0.4
		v-7.4c0-0.5,0.4-0.5,0.4-0.5h4.7V42c0-0.4,0.4-0.5,0.4-0.5c3.2-0.7,6.5-1,9.8-1c3.4,0,7.2,0.3,10.5,1c0,0,0.4,0.1,0.4,0.6v12.7
		h11.2c0,0,0.4,0,0.4,0.5v7.3c0,0.5-0.4,0.5-0.4,0.5h-11.3v22.1c0,7.5,3.3,9.8,8.8,9.8C374.4,95,376,94.9,377,94.9z"/>
	<g>
		<path class="st2" d="M435.1,84.3c-2.9,0-5.6-1-7.4-2.9c-3.2-3.4-3.1-8.3-2.6-13c-3,0.2-6.2-1.5-7.9-4.3c-1.5-2.5-1.8-5.8-0.9-9
			c-2.8-0.8-5.8-1.2-8.9-1.2c-16.6,0-29.1,10.3-29.1,27c0,16,12.4,27,29.1,27c15.6,0,27.7-9.1,29.2-23.8
			C436,84.3,435.5,84.3,435.1,84.3z M407.2,94.7c-5,0-5.3-7.2-5.3-13.7c0-7.6,0.5-14.3,5.4-14.3c4.2,0,5.6,5.6,5.6,13.9
			C412.9,88.6,412.1,94.7,407.2,94.7z"/>
	</g>
	<g>
		<path class="st3" d="M425.2,60.5c-0.2-4.4,0-15.1,7.4-15.1c0,0,14.4,4.1-5.7,16C426.1,61.9,425.2,61.4,425.2,60.5z"/>
		<path class="st3" d="M430.2,69.3c4.2-1.4,14.6-4.2,16.6,3c0,0,0.1,15-17-1C429.2,70.6,429.4,69.5,430.2,69.3z"/>
		<path class="st3" d="M431.2,63.6c2.2-3.8,8.4-12.6,14.5-8.5c0,0,9.8,11.4-13.6,10.2C431.3,65.3,430.8,64.4,431.2,63.6z"/>
	</g>
</g>
</svg>
